<?xml version="1.0" encoding="utf-8"?>
<!-- Generated by Mocodo 4.2.12 -->
<svg width="248" height="195" viewBox="0 0 248 195" xmlns="http://www.w3.org/2000/svg">
<rect x="0" y="0" width="248" height="195" fill="#f7f7f7" stroke="none" stroke-width="0"/>

<!-- Association A -->
<g>
	<line x1="205" y1="60" x2="127" y2="60" stroke="#4393c3" stroke-width="2"/>
	<line x1="46" y1="60" x2="127" y2="60" stroke="#4393c3" stroke-width="2"/>
	<line x1="127" y1="161" x2="127" y2="60" stroke="#4393c3" stroke-width="2"/>
	<g>
		<path d="M125 35 a14 14 90 0 1 14 14 V60 h-24 V49 a14 14 90 0 1 14 -14" fill="#92c5de" stroke="#92c5de" stroke-width="0"/>
		<path d="M139 60 v11 a14 14 90 0 1 -14 14 H129 a14 14 90 0 1 -14 -14 V60 H24" fill="#d1e5f0" stroke="#d1e5f0" stroke-width="0"/>
		<rect x="115" y="35" width="24" height="50" fill="none" rx="14" stroke="#4393c3" stroke-width="2"/>
		<line x1="115" y1="60" x2="139" y2="60" stroke="#4393c3" stroke-width="1"/>
		<text x="123" y="52.75" fill="#000000" font-family="Verdana" font-size="12">A</text>
	</g>
	<text x="144" y="77" fill="#b2182b" font-family="Verdana" font-size="12">0,N</text>
	<text x="88" y="77" fill="#b2182b" font-family="Verdana" font-size="12">0,N</text>
	<text x="132" y="128" fill="#b2182b" font-family="Verdana" font-size="12">0,N</text>
</g>

<!-- Entity RESULTAT -->
<g>
	<g>
		<rect x="9" y="35" width="74" height="25" fill="#f4a582" stroke="none" stroke-width="0" opacity="1"/>
		<rect x="9" y="60" width="74" height="25" fill="#fddbc7" stroke="none" stroke-width="0" opacity="1"/>
		<rect x="9" y="35" width="74" height="50" fill="none" stroke="#d6604d" stroke-width="2" opacity="1"/>
		<line x1="9" y1="60" x2="83" y2="60" stroke="#d6604d" stroke-width="1"/>
	</g>
	<text x="14" y="52.75" fill="#000000" font-family="Verdana" font-size="12">RESULTAT</text>
	<text x="14" y="77.8" fill="#000000" font-family="Verdana" font-size="12">score</text>
	<line x1="14" y1="80" x2="47" y2="80" stroke="#000000" stroke-width="1"/>
</g>

<!-- Entity JOUEUR -->
<g>
	<g>
		<rect x="171" y="9" width="68" height="25" fill="#f4a582" stroke="none" stroke-width="0" opacity="1"/>
		<rect x="171" y="34" width="68" height="77" fill="#fddbc7" stroke="none" stroke-width="0" opacity="1"/>
		<rect x="171" y="9" width="68" height="102" fill="none" stroke="#d6604d" stroke-width="2" opacity="1"/>
		<line x1="171" y1="34" x2="239" y2="34" stroke="#d6604d" stroke-width="1"/>
	</g>
	<text x="181" y="26.75" fill="#000000" font-family="Verdana" font-size="12">JOUEUR</text>
	<text x="176" y="51.8" fill="#000000" font-family="Verdana" font-size="12">idj</text>
	<line x1="176" y1="54" x2="192" y2="54" stroke="#000000" stroke-width="1"/>
	<text x="176" y="68.8" fill="#000000" font-family="Verdana" font-size="12">nom</text>
	<text x="176" y="85.8" fill="#000000" font-family="Verdana" font-size="12">prenom</text>
	<text x="176" y="102.8" fill="#000000" font-family="Verdana" font-size="12">password</text>
</g>

<!-- Entity DATE -->
<g>
	<g>
		<rect x="105" y="136" width="44" height="25" fill="#f4a582" stroke="none" stroke-width="0" opacity="1"/>
		<rect x="105" y="161" width="44" height="25" fill="#fddbc7" stroke="none" stroke-width="0" opacity="1"/>
		<rect x="105" y="136" width="44" height="50" fill="none" stroke="#d6604d" stroke-width="2" opacity="1"/>
		<line x1="105" y1="161" x2="149" y2="161" stroke="#d6604d" stroke-width="1"/>
	</g>
	<text x="111" y="153.75" fill="#000000" font-family="Verdana" font-size="12">DATE</text>
	<text x="110" y="178.8" fill="#000000" font-family="Verdana" font-size="12">date</text>
	<line x1="110" y1="181" x2="138" y2="181" stroke="#000000" stroke-width="1"/>
</g>
</svg>