<?xml version="1.0" encoding="utf-8"?>
<!-- Generated by Mocodo 4.2.12 -->
<svg width="240" height="102" viewBox="0 0 240 102" xmlns="http://www.w3.org/2000/svg">
<rect x="0" y="0" width="240" height="102" fill="#f7f7f7" stroke="none" stroke-width="0"/>

<!-- Association A -->
<g>
	<line x1="201" y1="51" x2="127" y2="51" stroke="#5aae61" stroke-width="2"/>
	<line x1="46" y1="51" x2="127" y2="51" stroke="#5aae61" stroke-width="2"/>
	<g>
		<path d="M125 26 a14 14 90 0 1 14 14 V51 h-24 V40 a14 14 90 0 1 14 -14" fill="#a6dba0" stroke="#a6dba0" stroke-width="0"/>
		<path d="M139 51 v11 a14 14 90 0 1 -14 14 H129 a14 14 90 0 1 -14 -14 V51 H24" fill="#d9f0d3" stroke="#d9f0d3" stroke-width="0"/>
		<rect x="115" y="26" width="24" height="50" fill="none" rx="14" stroke="#5aae61" stroke-width="2"/>
		<line x1="115" y1="51" x2="139" y2="51" stroke="#5aae61" stroke-width="1"/>
		<text x="123" y="43.75" fill="#000000" font-family="Verdana" font-size="12">A</text>
	</g>
	<text x="144" y="68" fill="#762a83" font-family="Verdana" font-size="12">0,N</text>
	<text x="88" y="68" fill="#762a83" font-family="Verdana" font-size="12">0,N</text>
</g>

<!-- Entity RESULTAT -->
<g>
	<g>
		<rect x="9" y="26" width="74" height="25" fill="#c2a5cf" stroke="none" stroke-width="0" opacity="1"/>
		<rect x="9" y="51" width="74" height="25" fill="#e7d4e8" stroke="none" stroke-width="0" opacity="1"/>
		<rect x="9" y="26" width="74" height="50" fill="none" stroke="#9970ab" stroke-width="2" opacity="1"/>
		<line x1="9" y1="51" x2="83" y2="51" stroke="#9970ab" stroke-width="1"/>
	</g>
	<text x="14" y="43.75" fill="#000000" font-family="Verdana" font-size="12">RESULTAT</text>
	<text x="14" y="68.8" fill="#000000" font-family="Verdana" font-size="12">score</text>
	<line x1="14" y1="71" x2="47" y2="71" stroke="#000000" stroke-width="1"/>
</g>

<!-- Entity JOUEUR -->
<g>
	<g>
		<rect x="171" y="9" width="60" height="25" fill="#c2a5cf" stroke="none" stroke-width="0" opacity="1"/>
		<rect x="171" y="34" width="60" height="59" fill="#e7d4e8" stroke="none" stroke-width="0" opacity="1"/>
		<rect x="171" y="9" width="60" height="84" fill="none" stroke="#9970ab" stroke-width="2" opacity="1"/>
		<line x1="171" y1="34" x2="231" y2="34" stroke="#9970ab" stroke-width="1"/>
	</g>
	<text x="177" y="26.75" fill="#000000" font-family="Verdana" font-size="12">JOUEUR</text>
	<text x="176" y="51.8" fill="#000000" font-family="Verdana" font-size="12">idj</text>
	<line x1="176" y1="54" x2="192" y2="54" stroke="#000000" stroke-width="1"/>
	<text x="176" y="68.8" fill="#000000" font-family="Verdana" font-size="12">nom</text>
	<text x="176" y="85.8" fill="#000000" font-family="Verdana" font-size="12">prenom</text>
</g>
</svg>